<svg width="30" height="30" viewBox="0 0 30 30" fill="none" xmlns="http://www.w3.org/2000/svg">
<path d="M0.9375 18.75H4.01203L4.5525 20.3719L2.14969 22.7747C1.78359 23.1408 1.78359 23.7342 2.14969 24.1003L5.89969 27.8503C6.26531 28.2164 6.85969 28.2164 7.22531 27.8503L9.62813 25.4475L11.25 25.988V29.0625C11.25 29.58 11.67 30 12.1875 30H17.8125C18.33 30 18.75 29.58 18.75 29.0625V25.988L20.3719 25.4475L22.7747 27.8503C23.1403 28.2164 23.7347 28.2164 24.1003 27.8503L27.8503 24.1003C28.2164 23.7342 28.2164 23.1408 27.8503 22.7747L25.4475 20.3719L25.988 18.75H29.0625C29.58 18.75 30 18.33 30 17.8125V12.1875C30 11.67 29.58 11.25 29.0625 11.25H25.988L25.4475 9.62813L27.8503 7.22531C28.2164 6.85922 28.2164 6.26578 27.8503 5.89969L24.1003 2.14969C23.7347 1.78359 23.1403 1.78359 22.7747 2.14969L20.3719 4.5525L18.75 4.01203V0.9375C18.75 0.42 18.33 0 17.8125 0H12.1875C11.67 0 11.25 0.42 11.25 0.9375V4.01203L9.62813 4.5525L7.22531 2.14969C6.85969 1.78359 6.26531 1.78359 5.89969 2.14969L2.14969 5.89969C1.78359 6.26578 1.78359 6.85922 2.14969 7.22531L4.5525 9.62813L4.01203 11.25H0.9375C0.42 11.25 0 11.67 0 12.1875V17.8125C0 18.33 0.42 18.75 0.9375 18.75ZM1.875 13.125H4.6875C5.09109 13.125 5.44922 12.8667 5.57672 12.4837L6.51422 9.67125C6.62625 9.33422 6.53859 8.96297 6.28781 8.71219L4.13859 6.5625L6.5625 4.13859L8.71219 6.28781C8.96297 6.53906 9.33469 6.62625 9.67125 6.51422L12.4837 5.57672C12.8667 5.44922 13.125 5.09109 13.125 4.6875V1.875H16.875V4.6875C16.875 5.09109 17.1333 5.44922 17.5163 5.57672L20.3288 6.51422C20.6663 6.62672 21.037 6.53906 21.2878 6.28781L23.4375 4.13859L25.8614 6.5625L23.7122 8.71219C23.4609 8.96344 23.3733 9.33469 23.4858 9.67125L24.4233 12.4837C24.5508 12.8667 24.9089 13.125 25.3125 13.125H28.125V16.875H25.3125C24.9089 16.875 24.5508 17.1333 24.4233 17.5163L23.4858 20.3288C23.3738 20.6658 23.4614 21.037 23.7122 21.2878L25.8614 23.4375L23.4375 25.8614L21.2878 23.7122C21.0366 23.4609 20.6653 23.3728 20.3288 23.4858L17.5163 24.4233C17.1333 24.5508 16.875 24.9089 16.875 25.3125V28.125H13.125V25.3125C13.125 24.9089 12.8667 24.5508 12.4837 24.4233L9.67125 23.4858C9.33516 23.3738 8.96297 23.4614 8.71219 23.7122L6.5625 25.8614L4.13859 23.4375L6.28781 21.2878C6.53906 21.0366 6.62672 20.6653 6.51422 20.3288L5.57672 17.5163C5.44922 17.1333 5.09109 16.875 4.6875 16.875H1.875V13.125Z" fill="white"/>
<path d="M15 18.75C17.0677 18.75 18.75 17.0677 18.75 15C18.75 12.9323 17.0677 11.25 15 11.25C12.9323 11.25 11.25 12.9323 11.25 15C11.25 17.0677 12.9323 18.75 15 18.75ZM15 13.125C16.0341 13.125 16.875 13.9659 16.875 15C16.875 16.0341 16.0341 16.875 15 16.875C13.9659 16.875 13.125 16.0341 13.125 15C13.125 13.9659 13.9659 13.125 15 13.125Z" fill="white"/>
</svg>
